<?xml version="1.0" encoding="utf-8"?>
<!-- Generator: Adobe Illustrator 15.0.0, SVG Export Plug-In . SVG Version: 6.00 Build 0)  -->
<svg version="1.2" baseProfile="tiny" id="Layer_1" xmlns="http://www.w3.org/2000/svg" xmlns:xlink="http://www.w3.org/1999/xlink"
	 x="0px" y="0px" width="437px" height="426px" viewBox="182.5 117.5 437 426" xml:space="preserve">
<g>
	<radialGradient id="SVGID_1_" cx="279.9551" cy="332.1692" r="57.4856" gradientUnits="userSpaceOnUse">
		<stop  offset="0" style="stop-color:#8A949B"/>
		<stop  offset="0.1629" style="stop-color:#FFFFFF"/>
		<stop  offset="0.3764" style="stop-color:#437A7F"/>
		<stop  offset="0.6685" style="stop-color:#FFFFFF"/>
		<stop  offset="1" style="stop-color:#64747E"/>
	</radialGradient>
	<path fill="url(#SVGID_1_)" d="M325.616,274.418c-7.015-1.591-14.432-2.46-22.116-2.46c-21.223,0-40.469,6.514-54.556,17.088
		c-14.566,10.936-23.613,26.216-23.613,43.123c0,33.254,34.998,60.211,78.169,60.211c11.047,0,21.552-1.774,31.08-4.959
		c-15.522-16.021-25.08-37.853-25.08-61.921C309.5,306.491,315.463,288.877,325.616,274.418z"/>
	<radialGradient id="SVGID_2_" cx="520.1807" cy="332.1692" r="58.3793" gradientUnits="userSpaceOnUse">
		<stop  offset="0" style="stop-color:#8A949B"/>
		<stop  offset="0.1629" style="stop-color:#FFFFFF"/>
		<stop  offset="0.3764" style="stop-color:#437A7F"/>
		<stop  offset="0.6685" style="stop-color:#FFFFFF"/>
		<stop  offset="1" style="stop-color:#64747E"/>
	</radialGradient>
	<path fill="url(#SVGID_2_)" d="M498.5,271.958c-9.259,0-18.137,1.248-26.379,3.523c9.704,14.255,15.379,31.474,15.379,50.019
		c0,23.403-9.038,44.692-23.808,60.58c10.484,4.024,22.298,6.3,34.808,6.3c43.171,0,78.169-26.958,78.169-60.211
		C576.669,298.915,541.671,271.958,498.5,271.958z"/>
	<radialGradient id="SVGID_3_" cx="403" cy="449.4797" r="58.4767" gradientUnits="userSpaceOnUse">
		<stop  offset="0" style="stop-color:#8A949B"/>
		<stop  offset="0.1629" style="stop-color:#FFFFFF"/>
		<stop  offset="0.3764" style="stop-color:#437A7F"/>
		<stop  offset="0.6685" style="stop-color:#FFFFFF"/>
		<stop  offset="1" style="stop-color:#64747E"/>
	</radialGradient>
	<path fill="url(#SVGID_3_)" d="M347.299,398.302c-2.9,9.158-4.51,19.183-4.51,29.698c0,21.223,6.514,40.469,17.088,54.556
		c10.936,14.566,26.216,23.613,43.123,23.613c33.254,0,60.211-34.998,60.211-78.169c0-12.671-2.337-24.626-6.459-35.21
		c-15.61,13.525-35.976,21.71-58.252,21.71C379.439,414.5,361.78,408.505,347.299,398.302z"/>
	<radialGradient id="SVGID_4_" cx="403" cy="207.6956" r="56.6568" gradientUnits="userSpaceOnUse">
		<stop  offset="0" style="stop-color:#8A949B"/>
		<stop  offset="0.1629" style="stop-color:#FFFFFF"/>
		<stop  offset="0.3764" style="stop-color:#437A7F"/>
		<stop  offset="0.6685" style="stop-color:#FFFFFF"/>
		<stop  offset="1" style="stop-color:#64747E"/>
	</radialGradient>
	<path fill="url(#SVGID_4_)" d="M459.35,260.56c2.489-8.573,3.861-17.856,3.861-27.56c0-43.171-26.958-78.169-60.211-78.169
		c-33.254,0-60.211,34.998-60.211,78.169c0,7.393,0.808,14.537,2.285,21.316c14.879-11.185,33.378-17.816,53.426-17.816
		C422.036,236.5,443.435,245.64,459.35,260.56z"/>
	<radialGradient id="SVGID_5_" cx="415.2578" cy="316.0061" r="14.3264" gradientUnits="userSpaceOnUse">
		<stop  offset="0" style="stop-color:#8A949B"/>
		<stop  offset="0.1629" style="stop-color:#FFFFFF"/>
		<stop  offset="0.3764" style="stop-color:#437A7F"/>
		<stop  offset="0.6685" style="stop-color:#FFFFFF"/>
		<stop  offset="1" style="stop-color:#64747E"/>
	</radialGradient>
	<path fill="url(#SVGID_5_)" d="M400.334,311.081l-0.248,14.414c0.093-0.001,0.179-0.002,0.272-0.002
		c18.39,0,19.934,3.419,20.063,3.94c0.565-9.733,4.138-18.859,10.009-26.854c-8.229,5.479-17.547,8.59-27.43,8.59
		C402.105,311.169,401.219,311.132,400.334,311.081z"/>
	<radialGradient id="SVGID_6_" cx="376.2197" cy="307.5315" r="51.9261" gradientUnits="userSpaceOnUse">
		<stop  offset="0" style="stop-color:#8A949B"/>
		<stop  offset="0.1629" style="stop-color:#FFFFFF"/>
		<stop  offset="0.3764" style="stop-color:#437A7F"/>
		<stop  offset="0.6685" style="stop-color:#FFFFFF"/>
		<stop  offset="1" style="stop-color:#64747E"/>
	</radialGradient>
	<path fill="url(#SVGID_6_)" d="M381.669,332.169c0,10.343-3.389,20.075-9.354,28.578c8.987-6.927,19.475-10.916,30.685-10.916
		c8.464,0,16.516,2.277,23.823,6.37c-4.167-7.363-6.492-15.487-6.492-24.032c0-0.895,0.037-1.781,0.088-2.666l-20.396-0.351
		l-0.356,20.747c0,0-3.343,0.333-3.343-18.758c0-0.711,0.006-1.391,0.016-2.053l-14.74-0.253c0,0-0.273-2.865,14.848-3.289
		c0.613-13.114,3.354-14.354,3.817-14.468c-26.351-1.53-48.28-25.048-55.191-56.763c-7.494,5.633-14.066,12.422-19.458,20.102
		C358.013,281.768,381.669,304.834,381.669,332.169z"/>
	<radialGradient id="SVGID_7_" cx="456.9434" cy="386.1389" r="6.7004" gradientUnits="userSpaceOnUse">
		<stop  offset="0" style="stop-color:#8A949B"/>
		<stop  offset="0.1629" style="stop-color:#FFFFFF"/>
		<stop  offset="0.3764" style="stop-color:#437A7F"/>
		<stop  offset="0.6685" style="stop-color:#FFFFFF"/>
		<stop  offset="1" style="stop-color:#64747E"/>
	</radialGradient>
	<path fill="url(#SVGID_7_)" d="M456.752,392.79c2.435-2.109,4.748-4.353,6.94-6.71c-4.803-1.844-9.319-4.058-13.497-6.592
		C452.71,383.607,454.91,388.059,456.752,392.79z"/>
	<radialGradient id="SVGID_8_" cx="459.1582" cy="273.9949" r="13.2011" gradientUnits="userSpaceOnUse">
		<stop  offset="0" style="stop-color:#8A949B"/>
		<stop  offset="0.1629" style="stop-color:#FFFFFF"/>
		<stop  offset="0.3764" style="stop-color:#437A7F"/>
		<stop  offset="0.6685" style="stop-color:#FFFFFF"/>
		<stop  offset="1" style="stop-color:#64747E"/>
	</radialGradient>
	<path fill="url(#SVGID_8_)" d="M472.121,275.482c-3.7-5.436-7.988-10.439-12.771-14.922c-2.94,10.128-7.454,19.248-13.154,26.87
		C453.672,282.24,462.456,278.151,472.121,275.482z"/>
	<radialGradient id="SVGID_9_" cx="346.8838" cy="386.3557" r="12.1268" gradientUnits="userSpaceOnUse">
		<stop  offset="0" style="stop-color:#8A949B"/>
		<stop  offset="0.1629" style="stop-color:#FFFFFF"/>
		<stop  offset="0.3764" style="stop-color:#437A7F"/>
		<stop  offset="0.6685" style="stop-color:#FFFFFF"/>
		<stop  offset="1" style="stop-color:#64747E"/>
	</radialGradient>
	<path fill="url(#SVGID_9_)" d="M334.58,387.421c3.885,4.01,8.143,7.656,12.72,10.881c2.822-8.912,6.878-16.99,11.889-23.893
		C352.194,379.88,343.854,384.322,334.58,387.421z"/>
	<radialGradient id="SVGID_10_" cx="420.4258" cy="329.469" r="0.0248" gradientUnits="userSpaceOnUse">
		<stop  offset="0" style="stop-color:#8A949B"/>
		<stop  offset="0.1629" style="stop-color:#FFFFFF"/>
		<stop  offset="0.3764" style="stop-color:#437A7F"/>
		<stop  offset="0.6685" style="stop-color:#FFFFFF"/>
		<stop  offset="1" style="stop-color:#64747E"/>
	</radialGradient>
	<path fill="url(#SVGID_10_)" d="M420.434,329.503c0,0-0.002-0.025-0.013-0.069c-0.001,0.023-0.001,0.046-0.002,0.069H420.434z"/>
	<radialGradient id="SVGID_11_" cx="365.752" cy="367.5784" r="6.6986" gradientUnits="userSpaceOnUse">
		<stop  offset="0" style="stop-color:#8A949B"/>
		<stop  offset="0.1629" style="stop-color:#FFFFFF"/>
		<stop  offset="0.3764" style="stop-color:#437A7F"/>
		<stop  offset="0.6685" style="stop-color:#FFFFFF"/>
		<stop  offset="1" style="stop-color:#64747E"/>
	</radialGradient>
	<path fill="url(#SVGID_11_)" d="M359.188,374.409c5.165-4.039,9.6-8.633,13.127-13.662
		C367.456,364.492,363.042,369.102,359.188,374.409z"/>
	<radialGradient id="SVGID_12_" cx="438.5098" cy="367.845" r="11.6646" gradientUnits="userSpaceOnUse">
		<stop  offset="0" style="stop-color:#8A949B"/>
		<stop  offset="0.1629" style="stop-color:#FFFFFF"/>
		<stop  offset="0.3764" style="stop-color:#437A7F"/>
		<stop  offset="0.6685" style="stop-color:#FFFFFF"/>
		<stop  offset="1" style="stop-color:#64747E"/>
	</radialGradient>
	<path fill="url(#SVGID_12_)" d="M450.195,379.489c-6.15-10.069-14.162-18.13-23.372-23.287
		C432.021,365.385,440.105,373.369,450.195,379.489z"/>
	<radialGradient id="SVGID_13_" cx="438.3125" cy="295.0046" r="7.7303" gradientUnits="userSpaceOnUse">
		<stop  offset="0" style="stop-color:#8A949B"/>
		<stop  offset="0.1629" style="stop-color:#FFFFFF"/>
		<stop  offset="0.3764" style="stop-color:#437A7F"/>
		<stop  offset="0.6685" style="stop-color:#FFFFFF"/>
		<stop  offset="1" style="stop-color:#64747E"/>
	</radialGradient>
	<path fill="url(#SVGID_13_)" d="M430.43,302.579c5.884-3.917,11.204-9.049,15.766-15.149
		C439.937,291.775,434.606,296.891,430.43,302.579z"/>
	<radialGradient id="SVGID_14_" cx="398.2129" cy="327.3245" r="1.8507" gradientUnits="userSpaceOnUse">
		<stop  offset="0" style="stop-color:#8A949B"/>
		<stop  offset="0.1629" style="stop-color:#FFFFFF"/>
		<stop  offset="0.3764" style="stop-color:#437A7F"/>
		<stop  offset="0.6685" style="stop-color:#FFFFFF"/>
		<stop  offset="1" style="stop-color:#64747E"/>
	</radialGradient>
	<path fill="url(#SVGID_14_)" d="M396.448,325.547c-0.052,1.098-0.089,2.272-0.108,3.542l3.683,0.063l0.063-3.657
		C398.782,325.497,397.575,325.516,396.448,325.547z"/>
	<radialGradient id="SVGID_15_" cx="400.2998" cy="311.0745" r="0.0246" gradientUnits="userSpaceOnUse">
		<stop  offset="0" style="stop-color:#8A949B"/>
		<stop  offset="0.1629" style="stop-color:#FFFFFF"/>
		<stop  offset="0.3764" style="stop-color:#437A7F"/>
		<stop  offset="0.6685" style="stop-color:#FFFFFF"/>
		<stop  offset="1" style="stop-color:#64747E"/>
	</radialGradient>
	<path fill="url(#SVGID_15_)" d="M400.334,311.067c0,0-0.026,0.002-0.069,0.013c0.023,0.001,0.046,0.001,0.069,0.002V311.067z"/>
</g>
</svg>
